<svg xmlns="http://www.w3.org/2000/svg" xmlns:svg="http://www.w3.org/2000/svg" id="svg2" width="2000" height="744.094" version="1.0"><defs id="defs4"><marker id="StopM" orient="auto" overflow="visible" refX="0" refY="0"><path id="path4401" fill="none" fill-opacity=".75" fill-rule="evenodd" stroke="#000" stroke-width="1pt" d="M 0,5.65 L 0,-5.65" transform="scale(0.4,0.4)"/></marker><marker id="StopL" orient="auto" overflow="visible" refX="0" refY="0"><path id="path4398" fill="none" fill-opacity=".75" fill-rule="evenodd" stroke="#000" stroke-width="1pt" d="M 0,5.65 L 0,-5.65" transform="scale(0.8,0.8)"/></marker><marker id="DotL" orient="auto" overflow="visible" refX="0" refY="0"><path id="path4290" fill-rule="evenodd" stroke="#000" stroke-width="1pt" marker-end="none" marker-start="none" d="M -2.5,-1 C -2.5,1.76 -4.74,4 -7.5,4 C -10.26,4 -12.5,1.76 -12.5,-1 C -12.5,-3.76 -10.26,-6 -7.5,-6 C -4.74,-6 -2.5,-3.76 -2.5,-1 z" transform="matrix(0.8,0,0,0.8,5.92,0.8)"/></marker></defs><metadata id="metadata7"/><g id="layer1"><path id="path7035" fill="#6b6bd1" fill-opacity="1" fill-rule="nonzero" stroke="#6b6bd1" stroke-dasharray="8 2" stroke-dashoffset="0" stroke-linecap="square" stroke-linejoin="miter" stroke-miterlimit="4" stroke-opacity="1" stroke-width="2" marker-end="none" marker-mid="none" marker-start="none" d="M 21.946542,347.45224 L 21.946542,338.51606 L 23.441252,339.81649 C 24.263342,340.5317 26.004632,341.76564 27.310772,342.55855 C 30.776142,344.66229 33.618922,344.39263 42.154422,341.15057 C 49.423582,338.38953 52.182832,337.96348 57.461422,338.78708 C 60.274692,339.22603 60.598022,339.38134 70.007242,344.81373 C 75.319212,347.88059 80.027552,350.74766 80.470212,351.18501 C 81.190752,351.89688 81.275062,352.77321 81.275062,359.55104 L 81.275062,367.12191 L 79.783382,365.83287 C 77.530562,363.88611 76.048242,363.15222 73.200102,362.57347 C 68.264112,361.5705 63.526732,364.31581 55.403502,372.88669 L 53.677282,374.70806 L 37.811892,365.54822 L 21.946542,356.38839 L 21.946542,347.45224 z" display="inline" enable-background="accumulate" overflow="visible" visibility="visible" style="marker:none"/><path id="path7037" fill="#6b6bd1" fill-opacity="1" fill-rule="nonzero" stroke="#6b6bd1" stroke-dasharray="8 2" stroke-dashoffset="0" stroke-linecap="square" stroke-linejoin="miter" stroke-miterlimit="4" stroke-opacity="1" stroke-width="2" marker-end="none" marker-mid="none" marker-start="none" d="M 34.955082,375.14993 C 32.480672,373.05482 24.176332,365.25063 22.751382,363.68122 C 22.121962,362.98799 21.946542,362.19688 21.946542,360.0515 L 21.946542,357.30821 L 37.353552,366.20342 C 45.827412,371.09578 52.760572,375.27472 52.760572,375.48995 C 52.760572,376.07385 48.304992,379.37015 46.161582,380.37196 L 44.290652,381.2464 L 40.822122,379.21359 C 38.914412,378.09552 36.274242,376.26688 34.955072,375.14993 L 34.955082,375.14993 z" display="inline" enable-background="accumulate" overflow="visible" visibility="visible" style="marker:none"/><path id="path7067" fill="#6bd06b" fill-opacity="1" fill-rule="nonzero" stroke="#6bd06b" stroke-dasharray="6 1.5" stroke-dashoffset="0" stroke-linecap="square" stroke-linejoin="miter" stroke-miterlimit="4" stroke-opacity="1" stroke-width="1.5" marker-end="none" marker-mid="none" marker-start="none" d="M 25.744732,340.61403 C 24.418902,339.66829 23.021922,338.59444 22.640332,338.22771 C 22.032542,337.64356 21.946542,334.13847 21.946542,309.95181 L 21.946542,282.34272 L 51.610802,299.46931 L 81.275062,316.5959 L 81.275202,333.49771 L 81.275342,350.39952 L 70.812222,344.36459 C 61.064872,338.74247 60.160642,338.29211 57.594062,337.78117 C 52.344062,336.73602 48.669212,337.24655 41.644772,339.99693 C 32.479912,343.58535 30.042852,343.67995 25.744732,340.61403 L 25.744732,340.61403 z" display="inline" enable-background="accumulate" overflow="visible" visibility="visible" style="marker:none"/><path id="path7069" fill="#6bd06b" fill-opacity="1" fill-rule="nonzero" stroke="#6bd06b" stroke-dasharray="6 1.5" stroke-dashoffset="0" stroke-linecap="square" stroke-linejoin="miter" stroke-miterlimit="4" stroke-opacity="1" stroke-width="1.5" marker-end="none" marker-mid="none" marker-start="none" d="M 21.946542,244.40006 L 21.946542,207.37723 L 51.610802,224.50382 L 81.275062,241.63041 L 81.275062,278.65324 L 81.275062,315.67608 L 51.610802,298.54949 L 21.946542,281.4229 L 21.946542,244.40006 z" display="inline" enable-background="accumulate" overflow="visible" visibility="visible" style="marker:none"/><path id="path7071" fill="#6bd06b" fill-opacity="1" fill-rule="nonzero" stroke="#6bd06b" stroke-dasharray="6 1.5" stroke-dashoffset="0" stroke-linecap="square" stroke-linejoin="miter" stroke-miterlimit="4" stroke-opacity="1" stroke-width="1.5" marker-end="none" marker-mid="none" marker-start="none" d="M 55.060132,375.27146 C 55.060132,374.91221 59.461392,370.47865 62.490012,367.78706 C 68.325312,362.60114 74.674922,362.18845 79.618192,366.67386 L 81.275062,368.17726 L 81.275062,379.40943 L 81.275062,390.64157 L 68.167592,383.07401 C 60.958492,378.91185 55.060132,375.4007 55.060132,375.27146 L 55.060132,375.27146 z" display="inline" enable-background="accumulate" overflow="visible" visibility="visible" style="marker:none"/><path id="path7077" fill="#6bd06b" fill-opacity="1" fill-rule="nonzero" stroke="#6bd06b" stroke-dasharray="6 1.5" stroke-dashoffset="0" stroke-linecap="square" stroke-linejoin="miter" stroke-miterlimit="4" stroke-opacity="1" stroke-width="1.5" marker-end="none" marker-mid="none" marker-start="none" d="M 21.946542,397.78038 C 21.946542,379.27399 22.124552,364.30965 22.343192,364.43589 C 22.561342,364.56184 24.268772,366.18137 26.137462,368.03483 C 32.159582,374.00789 36.870642,377.8823 41.034752,380.28644 L 44.843002,382.48512 L 47.307072,381.24571 C 48.662322,380.56406 50.790742,379.10242 52.036912,377.99764 L 54.302672,375.98895 L 67.788862,383.77517 L 81.275062,391.56139 L 81.275062,428.58423 L 81.275062,465.60707 L 51.610802,448.48048 L 21.946542,431.35389 L 21.946542,397.78038 z" display="inline" enable-background="accumulate" overflow="visible" visibility="visible" style="marker:none"/><rect id="rect6858" width="69.282" height="75" x="24.767" y="194.297" fill="none" fill-opacity="1" fill-rule="nonzero" stroke="#fff" stroke-dasharray="none" stroke-dashoffset="0" stroke-linecap="square" stroke-linejoin="miter" stroke-miterlimit="4" stroke-opacity="1" stroke-width="2.686" marker-end="none" marker-mid="none" marker-start="none" display="inline" enable-background="accumulate" overflow="visible" transform="matrix(0.8660264,0.4999983,0,1,0,0)" visibility="visible" style="marker:none"/><rect id="rect6873" width="69.282" height="75" x="24.767" y="269.207" fill="none" fill-opacity="1" fill-rule="nonzero" stroke="#fff" stroke-dasharray="none" stroke-dashoffset="0" stroke-linecap="square" stroke-linejoin="miter" stroke-miterlimit="4" stroke-opacity="1" stroke-width="2.686" marker-end="none" marker-mid="none" marker-start="none" display="inline" enable-background="accumulate" overflow="visible" transform="matrix(0.8660264,0.4999983,0,1,0,0)" visibility="visible" style="marker:none"/><rect id="rect6881" width="69.282" height="75" x="24.767" y="344.116" fill="none" fill-opacity="1" fill-rule="nonzero" stroke="#fff" stroke-dasharray="none" stroke-dashoffset="0" stroke-linecap="square" stroke-linejoin="miter" stroke-miterlimit="4" stroke-opacity="1" stroke-width="2.686" marker-end="none" marker-mid="none" marker-start="none" display="inline" enable-background="accumulate" overflow="visible" transform="matrix(0.8660264,0.4999983,0,1,0,0)" visibility="visible" style="marker:none"/><path id="path7039" fill="#3333a4" fill-opacity="1" fill-rule="nonzero" stroke="#3333a4" stroke-dasharray="8 2" stroke-dashoffset="0" stroke-linecap="square" stroke-linejoin="miter" stroke-miterlimit="4" stroke-opacity="1" stroke-width="2" marker-end="none" marker-mid="none" marker-start="none" d="M 90.322682,380.95536 C 90.000182,375.885 89.107332,372.5582 87.446882,370.24012 C 86.113882,368.37918 83.854472,367.01902 82.626462,367.33826 C 81.790642,367.55553 81.734972,367.08361 81.734972,359.78251 C 81.734972,355.49939 81.809632,351.95191 81.900882,351.89923 C 81.992132,351.84655 84.214302,351.00157 86.839022,350.02151 C 93.900862,347.38466 97.065582,345.24152 102.65814,339.30889 C 107.17728,334.51497 108.73369,332.60091 112.87243,326.74751 C 119.60878,317.22033 126.58915,301.55898 128.2754,292.18898 L 128.77288,289.42465 L 134.91818,285.87667 L 141.06349,282.3287 L 141.06349,293.54633 L 141.06349,304.76398 L 136.11944,310.50176 C 125.21922,323.15191 118.76755,331.90867 116.4792,337.15916 C 114.04127,342.75284 112.26704,350.13761 111.8425,356.45828 C 111.49841,361.58139 112.34048,365.71407 114.37893,368.90619 L 115.72004,371.00634 L 103.16596,378.25441 L 90.611862,385.50249 L 90.322682,380.95536 z" display="inline" enable-background="accumulate" overflow="visible" visibility="visible" style="marker:none"/><path id="path7045" fill="#3333a4" fill-opacity="1" fill-rule="nonzero" stroke="#3333a4" stroke-dasharray="8 2" stroke-dashoffset="0" stroke-linecap="square" stroke-linejoin="miter" stroke-miterlimit="4" stroke-opacity="1" stroke-width="2" marker-end="none" marker-mid="none" marker-start="none" d="M 129.28918,281.88296 C 129.37116,270.70232 127.98237,267.68203 120.70291,263.20995 C 118.021,261.56232 113.17583,259.37527 109.93085,258.34754 C 102.4381,255.97447 99.606922,254.501 97.980602,252.12804 C 96.822122,250.43771 96.685402,249.76023 96.712962,245.84638 C 96.745882,241.17121 97.481812,238.19759 99.898942,232.97307 L 101.06277,230.45752 L 116.43815,221.58058 L 131.81353,212.70364 L 130.93764,215.18948 C 128.96387,220.79104 128.65674,228.96898 130.22798,234.08509 C 131.29671,237.56497 135.11432,242.77874 138.27672,245.07739 L 141.06349,247.103 L 141.06349,264.25594 L 141.06349,281.40887 L 135.15305,284.82125 L 129.24265,288.2336 L 129.28918,281.88296 z" display="inline" enable-background="accumulate" overflow="visible" visibility="visible" style="marker:none"/><path id="path7047" fill="#3333a4" fill-opacity="1" fill-rule="nonzero" stroke="#3333a4" stroke-dasharray="8 2" stroke-dashoffset="0" stroke-linecap="square" stroke-linejoin="miter" stroke-miterlimit="4" stroke-opacity="1" stroke-width="2" marker-end="none" marker-mid="none" marker-start="none" d="M 111.39923,400.64544 C 110.13447,401.17969 108.27183,401.86671 107.26003,402.17217 C 104.30939,403.06297 98.577722,402.75338 96.448132,401.5882 C 93.086432,399.74888 90.679032,394.90062 90.419062,389.44625 L 90.294632,386.83542 L 103.32097,379.19245 L 116.34734,371.54946 L 118.47238,372.30355 C 122.98156,373.90364 125.72033,373.77649 135.08464,371.53232 L 140.83353,370.15459 L 140.96055,377.0689 L 141.0876,383.98321 L 137.97113,385.4235 C 134.17888,387.17613 126.63262,391.50841 119.21771,396.18977 C 116.1823,398.10617 112.66398,400.11122 111.39923,400.64545 L 111.39923,400.64544 z" display="inline" enable-background="accumulate" overflow="visible" visibility="visible" style="marker:none"/><path id="path7053" fill="#33a333" fill-opacity="1" fill-rule="nonzero" stroke="#33a333" stroke-dasharray="6 1.5" stroke-dashoffset="0" stroke-linecap="square" stroke-linejoin="miter" stroke-miterlimit="4" stroke-opacity="1" stroke-width="1.5" marker-end="none" marker-mid="none" marker-start="none" d="M 133.93486,370.90574 C 127.09404,372.43471 123.6263,372.60064 120.36749,371.55491 L 117.83798,370.74321 L 129.45073,364.01868 L 141.06349,357.29419 L 141.06349,363.04308 C 141.06349,368.22096 140.98354,368.83568 140.25864,369.23208 C 139.81598,369.47415 136.97028,370.22729 133.93486,370.90573 L 133.93486,370.90574 z" display="inline" enable-background="accumulate" overflow="visible" visibility="visible" style="marker:none"/><path id="path7055" fill="#33a333" fill-opacity="1" fill-rule="nonzero" stroke="#33a333" stroke-dasharray="6 1.5" stroke-dashoffset="0" stroke-linecap="square" stroke-linejoin="miter" stroke-miterlimit="4" stroke-opacity="1" stroke-width="1.5" marker-end="none" marker-mid="none" marker-start="none" d="M 116.28067,369.3765 C 115.76914,368.95346 114.93905,367.72529 114.43602,366.64725 C 111.78011,360.95543 112.14836,352.94793 115.58327,341.69951 C 117.72796,334.67618 122.79955,327.17262 135.19962,312.67652 L 141.06349,305.82147 L 141.06349,331.09793 L 141.06349,356.37437 L 129.13713,363.26002 L 117.21074,370.14569 L 116.28067,369.3765 z" display="inline" enable-background="accumulate" overflow="visible" visibility="visible" style="marker:none"/><path id="path7061" fill="#33a333" fill-opacity="1" fill-rule="nonzero" stroke="#33a333" stroke-dasharray="6 1.5" stroke-dashoffset="0" stroke-linecap="square" stroke-linejoin="miter" stroke-miterlimit="4" stroke-opacity="1" stroke-width="1.5" marker-end="none" marker-mid="none" marker-start="none" d="M 138.829,243.95145 C 136.05749,241.8429 134.36135,239.84952 132.82051,236.89003 C 129.50618,230.52419 129.18091,222.86502 131.8909,215.00088 L 132.89835,212.07732 L 136.98093,209.72026 L 141.06349,207.3632 L 141.06349,226.21955 C 141.06349,236.59055 140.96671,245.13178 140.84843,245.20007 C 140.73014,245.26836 139.8214,244.70648 138.82899,243.95145 L 138.829,243.95145 z" display="inline" enable-background="accumulate" overflow="visible" visibility="visible" style="marker:none"/><path id="path7063" fill="#33a333" fill-opacity="1" fill-rule="nonzero" stroke="#33a333" stroke-dasharray="6 1.5" stroke-dashoffset="0" stroke-linecap="square" stroke-linejoin="miter" stroke-miterlimit="4" stroke-opacity="1" stroke-width="1.5" marker-end="none" marker-mid="none" marker-start="none" d="M 81.734972,278.63921 L 81.734972,241.61638 L 90.741552,236.41645 C 95.695182,233.55648 99.671042,231.41625 99.576802,231.66038 C 95.982282,240.97151 95.324002,243.69487 95.614612,248.05253 C 95.845112,251.50897 97.869782,254.70607 100.81499,256.26429 C 102.02702,256.90554 105.82127,258.33386 109.24665,259.43833 C 115.44311,261.4363 123.70295,265.97024 125.36689,268.28695 C 127.74588,271.59924 128.9069,277.87888 128.40061,284.69553 L 128.08832,288.90005 L 104.91166,302.28104 L 81.734972,315.66205 L 81.734972,278.63921 z" display="inline" enable-background="accumulate" overflow="visible" visibility="visible" style="marker:none"/><path id="path7065" fill="#33a333" fill-opacity="1" fill-rule="nonzero" stroke="#33a333" stroke-dasharray="6 1.5" stroke-dashoffset="0" stroke-linecap="square" stroke-linejoin="miter" stroke-miterlimit="4" stroke-opacity="1" stroke-width="1.5" marker-end="none" marker-mid="none" marker-start="none" d="M 88.633632,348.46959 C 87.748302,348.77726 85.833922,349.47472 84.379452,350.01949 L 81.734972,351.00999 L 81.734972,333.79592 L 81.734972,316.58187 L 104.78169,303.2759 L 127.82844,289.96992 L 127.50903,291.879 C 126.10484,300.27123 120.62872,313.16686 114.08805,323.48376 C 105.66138,336.77553 96.551222,345.71799 88.633632,348.46958 L 88.633632,348.46959 z" display="inline" enable-background="accumulate" overflow="visible" visibility="visible" style="marker:none"/><path id="path7073" fill="#33a333" fill-opacity="1" fill-rule="nonzero" stroke="#33a333" stroke-dasharray="6 1.5" stroke-dashoffset="0" stroke-linecap="square" stroke-linejoin="miter" stroke-miterlimit="4" stroke-opacity="1" stroke-width="1.5" marker-end="none" marker-mid="none" marker-start="none" d="M 81.734972,379.57351 C 81.734972,369.18716 81.783582,368.5176 82.539812,368.48864 C 86.094612,368.35255 88.957752,373.7579 89.419472,381.47682 L 89.692042,386.03355 L 85.713522,388.33054 L 81.734972,390.62754 L 81.734972,379.57351 z" display="inline" enable-background="accumulate" overflow="visible" visibility="visible" style="marker:none"/><path id="path7075" fill="#33a333" fill-opacity="1" fill-rule="nonzero" stroke="#33a333" stroke-dasharray="6 1.5" stroke-dashoffset="0" stroke-linecap="square" stroke-linejoin="miter" stroke-miterlimit="4" stroke-opacity="1" stroke-width="1.5" marker-end="none" marker-mid="none" marker-start="none" d="M 81.734972,428.5702 L 81.734972,391.54736 L 85.671352,389.2747 C 87.836372,388.02474 89.519962,387.20794 89.412672,387.45959 C 89.305372,387.71126 89.399072,389.46806 89.620862,391.36362 C 90.607922,399.79942 94.367972,403.76178 101.42599,403.80388 C 106.79344,403.83592 109.57644,402.82374 117.83798,397.83488 C 128.83862,391.19199 135.57419,387.3552 138.419,386.11133 L 141.06349,384.95504 L 141.06349,408.14745 L 141.06349,431.33986 L 111.39923,448.46645 L 81.734972,465.59304 L 81.734972,428.5702 z" display="inline" enable-background="accumulate" overflow="visible" visibility="visible" style="marker:none"/><rect id="rect6862" width="69.282" height="75" x="94.151" y="288.396" fill="none" fill-opacity="1" fill-rule="nonzero" stroke="#fff" stroke-dasharray="none" stroke-dashoffset="0" stroke-linecap="square" stroke-linejoin="miter" stroke-miterlimit="4" stroke-opacity="1" stroke-width="2.686" marker-end="none" marker-mid="none" marker-start="none" display="inline" enable-background="accumulate" overflow="visible" transform="matrix(0.8660264,-0.4999983,0,1,0,0)" visibility="visible" style="marker:none"/><rect id="rect6875" width="69.282" height="75" x="94.151" y="363.306" fill="none" fill-opacity="1" fill-rule="nonzero" stroke="#fff" stroke-dasharray="none" stroke-dashoffset="0" stroke-linecap="square" stroke-linejoin="miter" stroke-miterlimit="4" stroke-opacity="1" stroke-width="2.686" marker-end="none" marker-mid="none" marker-start="none" display="inline" enable-background="accumulate" overflow="visible" transform="matrix(0.8660264,-0.4999983,0,1,0,0)" visibility="visible" style="marker:none"/><rect id="rect6883" width="69.282" height="75" x="94.151" y="438.216" fill="none" fill-opacity="1" fill-rule="nonzero" stroke="#fff" stroke-dasharray="none" stroke-dashoffset="0" stroke-linecap="square" stroke-linejoin="miter" stroke-miterlimit="4" stroke-opacity="1" stroke-width="2.686" marker-end="none" marker-mid="none" marker-start="none" display="inline" enable-background="accumulate" overflow="visible" transform="matrix(0.8660264,-0.4999983,0,1,0,0)" visibility="visible" style="marker:none"/><path id="path7059" fill="#6bd06b" fill-opacity="1" fill-rule="nonzero" stroke="#6bd06b" stroke-dasharray="6 1.5" stroke-dashoffset="0" stroke-linecap="square" stroke-linejoin="miter" stroke-miterlimit="4" stroke-opacity="1" stroke-width="1.5" marker-end="none" marker-mid="none" marker-start="none" d="M 161.55417,292.06605 C 161.45711,291.69382 161.25852,290.32224 161.11286,289.01809 C 160.44216,283.01332 157.26398,275.00528 151.12617,263.85476 C 149.28926,260.51767 146.48066,255.22843 144.88482,252.1009 L 141.98331,246.41448 L 141.98331,226.85528 L 141.98331,207.29608 L 171.64757,224.42267 L 201.31183,241.54925 L 201.31183,278.57209 L 201.31183,315.59492 L 181.52121,304.16886 C 166.08945,295.25937 161.69175,292.59375 161.55416,292.06604 L 161.55417,292.06605 z" display="inline" enable-background="accumulate" overflow="visible" visibility="visible" style="marker:none"/><path id="path7041" fill="#6b6bd1" fill-opacity="1" fill-rule="nonzero" stroke="#6b6bd1" stroke-dasharray="8 2" stroke-dashoffset="0" stroke-linecap="square" stroke-linejoin="miter" stroke-miterlimit="4" stroke-opacity="1" stroke-width="2" marker-end="none" marker-mid="none" marker-start="none" d="M 141.98331,293.06948 L 141.98331,282.26157 L 151.24705,287.60997 L 160.51078,292.95836 L 160.22634,295.51555 C 159.66964,300.52036 156.26598,303.83609 151.66789,303.85289 C 150.51507,303.85709 148.01964,303.95392 146.12251,304.06805 C 144.22537,304.18218 142.51795,304.18597 142.32824,304.07647 C 142.13853,303.96697 141.98331,299.01383 141.98331,293.06948 z" display="inline" enable-background="accumulate" overflow="visible" visibility="visible" style="marker:none"/><path id="path7043" fill="#6b6bd1" fill-opacity="1" fill-rule="nonzero" stroke="#6b6bd1" stroke-dasharray="8 2" stroke-dashoffset="0" stroke-linecap="square" stroke-linejoin="miter" stroke-miterlimit="4" stroke-opacity="1" stroke-width="2" marker-end="none" marker-mid="none" marker-start="none" d="M 141.98331,264.70871 L 141.98331,248.07566 L 143.83311,251.78434 C 144.85053,253.82414 147.40679,258.61545 149.51372,262.43171 C 151.62065,266.24799 154.00897,270.71978 154.82109,272.36903 C 157.87234,278.56552 160.36274,286.57772 160.37429,290.23507 L 160.37975,291.96289 L 151.18153,286.65232 L 141.98331,281.34175 L 141.98331,264.70871 z" display="inline" enable-background="accumulate" overflow="visible" visibility="visible" style="marker:none"/><path id="path7049" fill="#6b6bd1" fill-opacity="1" fill-rule="nonzero" stroke="#6b6bd1" stroke-dasharray="8 2" stroke-dashoffset="0" stroke-linecap="square" stroke-linejoin="miter" stroke-miterlimit="4" stroke-opacity="1" stroke-width="2" marker-end="none" marker-mid="none" marker-start="none" d="M 197.18275,456.59371 C 188.08598,434.08718 180.60479,422.21465 164.52871,404.77227 C 158.19568,397.901 154.04941,393.95644 147.27228,388.35539 L 142.21326,384.17429 L 142.08669,377.20212 L 141.96009,370.22995 L 154.27433,380.47257 C 167.5775,391.53778 174.85374,397.8989 177.39645,400.68663 C 179.69192,403.2033 182.56981,407.70973 187.61338,416.68507 C 193.32901,426.85644 197.10346,432.49904 200.13064,435.3977 L 201.31183,436.52875 L 201.31183,451.02732 C 201.31183,459.00155 201.15661,465.43071 200.96689,465.31435 C 200.77718,465.19798 199.07431,461.27371 197.18275,456.59372 L 197.18275,456.59371 z" display="inline" enable-background="accumulate" overflow="visible" visibility="visible" style="marker:none"/><path id="path7051" fill="#6bd06b" fill-opacity="1" fill-rule="nonzero" stroke="#6bd06b" stroke-dasharray="6 1.5" stroke-dashoffset="0" stroke-linecap="square" stroke-linejoin="miter" stroke-miterlimit="4" stroke-opacity="1" stroke-width="1.5" marker-end="none" marker-mid="none" marker-start="none" d="M 198.27871,432.09706 C 195.2364,428.34265 192.47464,423.97028 187.4778,414.9971 C 182.78109,406.56285 179.86291,402.14392 177.1665,399.38286 C 173.98428,396.12436 168.96931,391.76665 155.32073,380.40023 C 148.87047,375.02851 143.23082,370.28537 142.78815,369.85991 C 142.07922,369.17853 141.98331,368.37969 141.98331,363.1567 L 141.98331,357.22706 L 171.64757,374.35365 L 201.31183,391.48024 L 201.31183,413.55597 C 201.31183,425.69762 201.24045,435.59049 201.15316,435.54009 C 201.06591,435.48972 199.77241,433.94035 198.27871,432.09706 L 198.27871,432.09706 z" display="inline" enable-background="accumulate" overflow="visible" visibility="visible" style="marker:none"/><path id="path7057" fill="#6bd06b" fill-opacity="1" fill-rule="nonzero" stroke="#6bd06b" stroke-dasharray="6 1.5" stroke-dashoffset="0" stroke-linecap="square" stroke-linejoin="miter" stroke-miterlimit="4" stroke-opacity="1" stroke-width="1.5" marker-end="none" marker-mid="none" marker-start="none" d="M 141.98331,330.81578 L 141.98331,305.32432 L 145.31766,305.15319 C 147.15156,305.05909 149.68682,305.00724 150.95157,305.03798 C 156.9612,305.18401 161.24237,300.986 161.28832,294.90198 L 161.29957,293.41377 L 181.3057,304.96426 L 201.31183,316.51475 L 201.31183,353.53758 L 201.31183,390.56042 L 171.64757,373.43383 L 141.98331,356.30724 L 141.98331,330.81578 z" display="inline" enable-background="accumulate" overflow="visible" visibility="visible" style="marker:none"/><path id="path7079" fill="#6bd06b" fill-opacity="1" fill-rule="nonzero" stroke="#6bd06b" stroke-dasharray="6 1.5" stroke-dashoffset="0" stroke-linecap="square" stroke-linejoin="miter" stroke-miterlimit="4" stroke-opacity="1" stroke-width="1.5" marker-end="none" marker-mid="none" marker-start="none" d="M 141.98331,408.22497 L 141.98331,385.17718 L 144.07915,386.70152 C 148.33511,389.7969 158.33371,398.97066 163.36542,404.39673 C 170.40641,411.98956 179.26236,423.26637 183.32494,429.81234 C 188.14269,437.5751 192.78899,447.29261 197.66128,459.79618 L 199.48244,464.46972 L 170.73288,447.87123 L 141.98331,431.27274 L 141.98331,408.22497 z" display="inline" enable-background="accumulate" overflow="visible" visibility="visible" style="marker:none"/><rect id="rect6864" width="69.282" height="75" x="163.536" y="124.913" fill="none" fill-opacity="1" fill-rule="nonzero" stroke="#fff" stroke-dasharray="none" stroke-dashoffset="0" stroke-linecap="round" stroke-linejoin="round" stroke-miterlimit="4" stroke-opacity="1" stroke-width="2.686" marker-end="none" marker-mid="none" marker-start="none" display="inline" enable-background="accumulate" overflow="visible" transform="matrix(0.8660264,0.4999983,0,1,0,0)" visibility="visible" style="marker:none"/><rect id="rect6877" width="69.282" height="75" x="163.536" y="199.822" fill="none" fill-opacity="1" fill-rule="nonzero" stroke="#fff" stroke-dasharray="none" stroke-dashoffset="0" stroke-linecap="round" stroke-linejoin="round" stroke-miterlimit="4" stroke-opacity="1" stroke-width="2.686" marker-end="none" marker-mid="none" marker-start="none" display="inline" enable-background="accumulate" overflow="visible" transform="matrix(0.8660264,0.4999983,0,1,0,0)" visibility="visible" style="marker:none"/><rect id="rect6885" width="69.282" height="75" x="163.536" y="274.732" fill="none" fill-opacity="1" fill-rule="nonzero" stroke="#fff" stroke-dasharray="none" stroke-dashoffset="0" stroke-linecap="round" stroke-linejoin="round" stroke-miterlimit="4" stroke-opacity="1" stroke-width="2.686" marker-end="none" marker-mid="none" marker-start="none" display="inline" enable-background="accumulate" overflow="visible" transform="matrix(0.8660264,0.4999983,0,1,0,0)" visibility="visible" style="marker:none"/><text id="text2429" x="208.698" y="397.233" fill="#000" fill-opacity="1" stroke="none" stroke-linecap="butt" stroke-linejoin="miter" stroke-opacity="1" stroke-width="1" font-family="Futura" font-size="150" font-stretch="normal" font-style="normal" font-variant="normal" font-weight="normal" text-anchor="start" transform="scale(1.0351803,0.9660153)" writing-mode="lr-tb" xml:space="preserve" style="text-align:start;line-height:125%;-inkscape-font-specification:Futura"><tspan font-style="normal" style="text-align:start;line-height:125%;-inkscape-font-specification:Futura" id="tspan2431" x="208.698" y="397.233" font-family="Futura" font-size="150" font-stretch="normal" font-variant="normal" font-weight="normal" text-anchor="start" writing-mode="lr-tb">MapServer</tspan></text><text id="text3271" x="548.184" y="427.296" fill="#000" fill-opacity="1" stroke="none" stroke-linecap="butt" stroke-linejoin="miter" stroke-opacity="1" stroke-width="1" font-family="Futura" font-size="32" font-stretch="normal" font-style="italic" font-variant="normal" font-weight="normal" text-anchor="start" writing-mode="lr-tb" xml:space="preserve" style="text-align:start;line-height:125%;-inkscape-font-specification:Futura Italic"><tspan id="tspan3273" x="548.184" y="427.296">open source web mapping</tspan></text></g></svg>